<svg width="1600" height="900" viewBox="0 0 1600 900" fill="none" xmlns="http://www.w3.org/2000/svg">
  <rect width="1600" height="900" fill="#06111E"/>
  <circle cx="1263" cy="146" r="98" fill="#F59E0B" fill-opacity="0.75"/>
  <circle cx="134" cy="205" r="126" fill="#22D3EE" fill-opacity="0.24"/>
  <path d="M0 651L178 588L356 613L533 456L711 521L889 364L1067 424L1244 313L1422 364L1600 269V900H0V651Z" fill="#0F766E"/>
  <path d="M0 710L200 648L400 700L600 545L800 618L1000 495L1200 566L1400 459L1600 530V900H0V710Z" fill="#0A5C56"/>
  <path d="M0 770L152 723L305 760L457 662L610 698L762 620L914 684L1067 599L1219 655L1372 579L1524 625L1600 608V900H0V770Z" fill="#083945"/>
  <rect x="555" y="277" width="492" height="231" rx="18" fill="#E2E8F0" fill-opacity="0.08" stroke="#E2E8F0" stroke-opacity="0.15"/>
  <path d="M607 507V410C607 324.948 675.948 256 761 256H841C926.052 256 995 324.948 995 410V507" stroke="#E2E8F0" stroke-width="18"/>
  <path d="M655 507V432C655 373.458 702.458 326 761 326H841C899.542 326 947 373.458 947 432V507" stroke="#F8FAFC" stroke-width="10"/>
  <path d="M800 257V186" stroke="#E2E8F0" stroke-width="14" stroke-linecap="round"/>
  <path d="M779 186H821" stroke="#E2E8F0" stroke-width="14" stroke-linecap="round"/>
  <rect x="730" y="356" width="140" height="85" rx="10" fill="#F8FAFC"/>
  <rect x="752" y="378" width="96" height="40" rx="7" fill="#0F172A"/>
  <circle cx="1260" cy="694" r="95" fill="#22D3EE" fill-opacity="0.16"/>
  <circle cx="267" cy="752" r="143" fill="#F8FAFC" fill-opacity="0.05"/>
</svg>
