<svg width="800" height="600" viewBox="0 0 800 600" fill="none" xmlns="http://www.w3.org/2000/svg">
  <rect width="800" height="600" rx="40" fill="#0A1221"/>
  <rect y="458" width="800" height="142" fill="#1E293B"/>
  <rect x="352" y="84" width="96" height="393" rx="22" fill="#B45309"/>
  <rect x="336" y="116" width="128" height="42" rx="18" fill="#92400E"/>
  <rect x="328" y="190" width="144" height="46" rx="18" fill="#92400E"/>
  <rect x="320" y="272" width="160" height="50" rx="18" fill="#92400E"/>
  <rect x="312" y="364" width="176" height="54" rx="18" fill="#92400E"/>
  <path d="M400 48L434 104H366L400 48Z" fill="#F8FAFC"/>
  <rect x="195" y="286" width="110" height="191" rx="12" fill="#475569"/>
  <rect x="515" y="252" width="108" height="225" rx="12" fill="#334155"/>
  <path d="M0 412L114 384L228 404L343 336L457 362L572 306L686 342L800 292V458H0V412Z" fill="#14532D"/>
  <circle cx="124" cy="132" r="68" fill="#67E8F9" fill-opacity="0.22"/>
</svg>
